<svg id="Capa_1" enable-background="new 0 0 512 512" height="512" viewBox="0 0 512 512" width="512" xmlns="http://www.w3.org/2000/svg"><g><path d="m450.759 61.244c-27.777-27.778-62.646-47.103-100.836-55.887-5.38-1.237-10.748 2.122-11.986 7.504s2.121 10.749 7.504 11.987c34.528 7.941 66.056 25.417 91.176 50.538 73.853 73.853 73.853 194.021 0 267.874-36.931 36.931-85.426 55.394-133.937 55.39-48.5-.005-97.016-18.468-133.938-55.39-73.854-73.854-73.854-194.023 0-267.876 25.119-25.12 56.648-42.596 91.178-50.537 5.383-1.238 8.742-6.604 7.504-11.987-1.238-5.382-6.603-8.739-11.986-7.504-38.191 8.784-73.061 28.109-100.838 55.886-39.493 39.493-61.243 92.082-61.243 148.08 0 42.35 12.449 82.745 35.596 117.005l-117.202 117.202c-7.576 7.577-11.749 17.649-11.749 28.361s4.173 20.784 11.749 28.361c7.577 7.577 17.649 11.749 28.362 11.749 10.711 0 20.783-4.172 28.361-11.749l117.223-117.224c35.214 23.733 76.095 35.614 116.983 35.614 53.627 0 107.254-20.413 148.079-61.238 81.652-81.652 81.652-214.508 0-296.159zm-396.427 424.864c-3.8 3.799-8.85 5.892-14.22 5.892s-10.42-2.092-14.219-5.891c-3.799-3.8-5.892-8.85-5.892-14.219 0-5.37 2.092-10.42 5.892-14.219l115.165-115.164c4.251 5.144 8.764 10.118 13.542 14.896 4.796 4.796 9.775 9.3 14.905 13.533z"/><circle cx="302.68" cy="10" r="10"/><path d="m184.734 91.377c-65.034 65.035-65.034 170.855 0 235.891 32.518 32.518 75.231 48.776 117.945 48.776 42.715 0 85.429-16.259 117.946-48.776 31.504-31.504 48.854-73.392 48.854-117.945 0-44.554-17.35-86.441-48.854-117.945-65.035-65.036-170.856-65.038-235.891-.001zm221.749 14.143c27.728 27.727 42.997 64.591 42.997 103.803 0 39.211-15.27 76.076-42.997 103.803-28.622 28.622-66.206 42.932-103.804 42.928-37.587-.003-75.188-14.312-103.803-42.928-57.236-57.237-57.236-150.37 0-207.607v.001c57.238-57.239 150.371-57.238 207.607 0z"/><path d="m217.315 274.502c-1.967 5.161.623 10.938 5.784 12.905 1.172.446 2.375.658 3.559.658 4.029 0 7.826-2.453 9.347-6.442 2.79-7.322 6.769-14.101 11.742-20.095 9.127 21.082 30.126 35.874 54.522 35.874h.823c24.392 0 45.389-14.787 54.518-35.865 4.974 5.991 8.956 12.764 11.746 20.085 1.521 3.99 5.317 6.442 9.347 6.442 1.184 0 2.388-.212 3.559-.658 5.161-1.967 7.751-7.745 5.784-12.905-5.37-14.094-14.167-26.612-25.567-36.49v-30.577c11.401-9.879 20.197-22.397 25.567-36.491 1.967-5.161-.623-10.939-5.784-12.905-5.162-1.966-10.938.623-12.905 5.784-2.79 7.322-6.771 14.098-11.743 20.092-3.27-7.553-8.067-14.292-13.996-19.838 2.472-5.333 3.614-11.189 3.614-18.187 0-6.599-1.411-12.956-4.195-18.892-2.345-5-8.296-7.154-13.299-4.809-5.001 2.345-7.153 8.299-4.809 13.299 1.528 3.26 2.303 6.759 2.303 10.402 0 2.769-.221 4.994-.739 6.967-7.185-3.092-15.094-4.813-23.399-4.813h-.823c-8.305 0-16.214 1.72-23.399 4.813-.517-1.974-.739-4.198-.739-6.967 0-3.641.775-7.142 2.304-10.404 2.344-5.001.189-10.955-4.811-13.298-5.004-2.345-10.955-.188-13.298 4.812-2.783 5.938-4.194 12.295-4.194 18.891 0 6.998 1.142 12.855 3.614 18.187-5.93 5.546-10.726 12.285-13.997 19.838-4.972-5.994-8.953-12.77-11.743-20.092-1.967-5.161-7.745-7.751-12.905-5.784-5.161 1.966-7.751 7.744-5.784 12.905 5.37 14.094 14.167 26.612 25.567 36.491v30.577c-11.404 9.878-20.201 22.397-25.571 36.49zm45.567-36.485v-20.175h29.798v58.375c-17.098-4.293-29.798-19.789-29.798-38.2zm49.798 38.2v-58.375h29.797v20.175c0 18.411-12.699 33.906-29.797 38.2zm-9.589-108.173c18.411 0 33.906 12.7 38.2 29.797h-77.223c4.293-17.098 19.789-29.797 38.2-29.797z"/></g></svg>