<svg id="Capa_1" enable-background="new 0 0 512 512" height="512" viewBox="0 0 512 512" width="512" xmlns="http://www.w3.org/2000/svg"><g><path d="m217.289 358.037c-12.95 0-25.146-5.013-34.355-14.125h.001l-51.319-50.776c-6.795-6.723-10.564-15.689-10.615-25.246s3.624-18.562 10.346-25.355c6.722-6.794 15.688-10.563 25.245-10.614h.196c9.485 0 18.414 3.669 25.16 10.346l35.26 34.887 112.709-112.71c6.758-6.758 15.744-10.479 25.302-10.479s18.543 3.723 25.301 10.481c6.758 6.757 10.481 15.743 10.481 25.301 0 9.559-3.722 18.544-10.481 25.301l-128.684 128.681c-9.192 9.191-21.414 14.273-34.414 14.308-.044 0-.089 0-.133 0zm-60.505-106.117c-.029 0-.057 0-.086 0-4.216.022-8.17 1.685-11.135 4.681-2.965 2.997-4.585 6.968-4.563 11.183.022 4.216 1.685 8.171 4.682 11.136l51.318 50.775h.001c5.438 5.381 12.642 8.342 20.289 8.342h.079c7.678-.021 14.896-3.022 20.325-8.45l128.684-128.684c2.982-2.98 4.623-6.942 4.623-11.158s-1.642-8.179-4.622-11.16c-2.981-2.98-6.944-4.622-11.16-4.622s-8.179 1.642-11.159 4.622l-119.744 119.743c-3.891 3.892-10.194 3.908-14.104.037l-42.331-41.883c-2.976-2.944-6.914-4.562-11.097-4.562z"/><path d="m256 512c-68.38 0-132.667-26.629-181.019-74.98-48.353-48.353-74.981-112.64-74.981-181.02 0-123.454 87.974-229.32 209.181-251.727 5.433-1.008 10.647 2.584 11.651 8.016 1.004 5.431-2.585 10.646-8.016 11.65-111.725 20.655-192.816 118.25-192.816 232.061 0 130.131 105.869 236 236 236s236-105.869 236-236c0-113.811-81.091-211.406-192.817-232.061-5.431-1.004-9.02-6.22-8.016-11.65 1.004-5.431 6.221-9.021 11.651-8.016 121.208 22.407 209.182 128.273 209.182 251.727 0 68.38-26.628 132.667-74.981 181.02-48.352 48.351-112.639 74.98-181.019 74.98z"/><circle cx="256" cy="10" r="10"/><path d="m256 462c-113.589 0-206-92.411-206-206s92.411-206 206-206 206 92.411 206 206-92.411 206-206 206zm0-392c-102.561 0-186 83.439-186 186s83.439 186 186 186 186-83.44 186-186-83.44-186-186-186z"/></g></svg>