<svg id="Capa_1" enable-background="new 0 0 512 512" height="512" viewBox="0 0 512 512" width="512" xmlns="http://www.w3.org/2000/svg"><g><circle cx="256" cy="379.481" r="10"/><path d="m438.319 0h-364.638c-40.628 0-73.681 33.053-73.681 73.681v364.638c0 40.628 33.053 73.681 73.681 73.681h364.638c40.628 0 73.681-33.053 73.681-73.681v-364.638c0-40.628-33.053-73.681-73.681-73.681zm53.642 438.319c0 29.578-24.064 53.642-53.642 53.642h-364.638c-29.578 0-53.642-24.064-53.642-53.642v-364.638c0-29.578 24.064-53.642 53.642-53.642h364.638c29.578 0 53.642 24.064 53.642 53.642z"/><path d="m420.375 122.5h-328.75c-22.099 0-40.078 17.979-40.078 40.078v186.844c0 22.099 17.979 40.078 40.078 40.078h119.462c5.533 0 10.02-4.486 10.02-10.02s-4.486-10.02-10.02-10.02h-119.462c-1.857 0-3.648-.274-5.356-.749l123.098-107.891 40.649 30.263c3.511 2.614 8.455 2.614 11.967 0l40.65-30.263 123.096 107.891c-1.707.475-3.498.748-5.354.748h-119.462c-5.533 0-10.02 4.486-10.02 10.02s4.486 10.02 10.02 10.02h119.462c22.099 0 40.078-17.979 40.078-40.078v-186.843c0-22.1-17.979-40.078-40.078-40.078zm-348.145 231.871c-.405-1.586-.644-3.238-.644-4.949v-186.844c0-1.379.14-2.726.407-4.028l120.935 90.033zm183.77-83.814-170.607-127.013c1.964-.645 4.055-1.005 6.232-1.005h328.75c2.177 0 4.268.36 6.232 1.005zm184.007-112.007c.267 1.302.407 2.649.407 4.028v186.844c0 1.711-.238 3.363-.644 4.949l-120.698-105.788z"/></g></svg>