<svg id="Capa_1" enable-background="new 0 0 511 511" height="512" viewBox="0 0 511 511" width="512" xmlns="http://www.w3.org/2000/svg"><g><ellipse cx="313.083" cy="329.667" rx="10" ry="10" transform="matrix(.98 -.201 .201 .98 -59.98 69.81)"/><path d="m255.5 71.5c-45.552 0-86.344 23.552-109.119 63-22.775 39.449-22.775 86.552 0 126l100.459 174c1.786 3.094 5.088 5 8.66 5s6.874-1.906 8.66-5l35.118-60.826c2.762-4.783 1.123-10.898-3.66-13.66-4.785-2.762-10.9-1.122-13.66 3.66l-26.458 45.826-91.799-159c-19.16-33.187-19.16-72.812 0-106 19.16-33.187 53.478-53 91.799-53s72.639 19.813 91.799 53c19.16 33.188 19.16 72.813-.009 106.015l-20.271 35.25c-2.753 4.788-1.104 10.901 3.684 13.654 4.789 2.753 10.901 1.103 13.654-3.684l20.263-35.235c22.775-39.448 22.775-86.551 0-126-22.776-39.448-63.568-63-109.12-63z"/><path d="m436.166 74.834c-48.258-48.257-112.42-74.834-180.666-74.834s-132.408 26.577-180.666 74.834c-48.257 48.258-74.834 112.42-74.834 180.666s26.577 132.408 74.834 180.666c48.258 48.257 112.42 74.834 180.666 74.834s132.408-26.577 180.666-74.834c48.257-48.258 74.834-112.42 74.834-180.666s-26.577-132.408-74.834-180.666zm-14.143 347.189c-44.479 44.481-103.619 68.977-166.523 68.977s-122.044-24.496-166.523-68.977c-44.481-44.479-68.977-103.619-68.977-166.523s24.496-122.044 68.977-166.523c44.479-44.481 103.619-68.977 166.523-68.977s122.044 24.496 166.523 68.977c44.481 44.479 68.977 103.619 68.977 166.523s-24.496 122.044-68.977 166.523z"/><path d="m255.5 121.554c-33.726 0-61.163 27.438-61.163 61.163s27.438 61.163 61.163 61.163 61.163-27.438 61.163-61.163-27.437-61.163-61.163-61.163zm0 102.326c-22.697 0-41.163-18.466-41.163-41.163s18.466-41.163 41.163-41.163 41.163 18.466 41.163 41.163-18.466 41.163-41.163 41.163z"/></g></svg>