<svg id="Capa_1" enable-background="new 0 0 512 512" height="512" viewBox="0 0 512 512" width="512" xmlns="http://www.w3.org/2000/svg"><g><path d="m437.02 74.98c-48.353-48.351-112.64-74.98-181.02-74.98s-132.667 26.629-181.02 74.98c-48.351 48.353-74.98 112.64-74.98 181.02s26.629 132.667 74.98 181.02c48.353 48.351 112.64 74.98 181.02 74.98s132.667-26.629 181.02-74.98c48.351-48.353 74.98-112.64 74.98-181.02s-26.629-132.667-74.98-181.02zm-14.171 347.869c-44.567 44.568-103.822 69.112-166.849 69.112s-122.282-24.544-166.849-69.112c-44.568-44.566-69.112-103.822-69.112-166.849s24.544-122.283 69.112-166.849c44.567-44.568 103.822-69.112 166.849-69.112s122.282 24.544 166.849 69.112c44.568 44.567 69.112 103.822 69.112 166.849s-24.544 122.283-69.112 166.849z"/><path d="m331.219 76.683-14.331-5.793c-35.187-14.221-75.94-8.258-114.753 16.792-4.649 3.001-5.986 9.203-2.985 13.852 3.001 4.65 9.202 5.984 13.852 2.985 28.265-18.244 57.287-24.815 83.176-19.125l-36.704 93.794c-15.379 5.342-42.715 18.779-58.589 49.754-19.896 38.823-6.913 76.727.613 92.923l-38.068 94.183c-23.257-13.984-39.934-39.496-47.536-73.239-9.113-40.452-4.115-87.514 14.074-132.515 6.461-15.987 14.394-31.175 23.578-45.141 3.04-4.623 1.757-10.837-2.867-13.877-4.623-3.041-10.837-1.756-13.877 2.867-9.908 15.068-18.458 31.432-25.413 48.642-19.702 48.745-25.045 100.036-15.045 144.428 10.301 45.723 35.579 78.828 71.178 93.217l14.829 5.993c3.756 1.5 7.689 2.248 11.627 2.248 4.323 0 8.652-.901 12.757-2.702 7.773-3.407 13.78-9.609 16.916-17.464l26.434-66.219c6.448-16.154-1.518-34.57-17.719-41.038l-11.088-4.481c-5.173-9.776-20.397-43.885-2.562-78.686 14.184-27.677 40.724-38.042 50.858-41.096l11.688 4.724c16.241 6.484 34.713-1.419 41.177-17.614l26.434-66.219c6.484-16.239-1.454-34.725-17.654-41.193zm-99.744 278.177-26.434 66.219c-1.172 2.935-3.427 5.258-6.35 6.539-2.889 1.268-6.053 1.337-8.87.212l-8.199-3.314 35.495-87.816 7.782 3.145c6.079 2.427 8.968 9.022 6.576 15.015zm98.789-244.411-26.434 66.219c-2.368 5.932-9.157 8.822-15.096 6.448l-8.01-3.238 34.461-88.061 8.565 3.462c5.978 2.386 8.9 9.191 6.514 15.17z"/><path d="m180.135 131.41c3.81-3.998 3.658-10.328-.34-14.138s-10.328-3.658-14.138.34-3.658 10.328.34 14.138 10.328 3.658 14.138-.34z"/><path d="m303.191 344.871c-3.71 0-7.274-2.073-9.003-5.635-2.412-4.968-.339-10.951 4.629-13.363 14.683-7.128 25.711-19.548 31.053-34.971s4.359-32.003-2.77-46.686c-2.412-4.968-.339-10.951 4.629-13.363 4.97-2.411 10.951-.338 13.363 4.629 9.461 19.488 10.767 41.495 3.676 61.966-7.09 20.472-21.729 36.956-41.217 46.417-1.406.683-2.895 1.006-4.36 1.006z"/><path d="m332.568 405.383c-3.71 0-7.274-2.073-9.003-5.635-2.412-4.968-.339-10.951 4.629-13.363 30.846-14.975 54.015-41.065 65.237-73.467 11.223-32.4 9.156-67.231-5.819-98.078-2.412-4.968-.339-10.951 4.629-13.363 4.969-2.41 10.952-.339 13.363 4.629 17.308 35.652 19.696 75.91 6.725 113.359-12.971 37.448-39.75 67.604-75.401 84.912-1.406.682-2.895 1.006-4.36 1.006z"/></g></svg>