<svg id="Capa_1" enable-background="new 0 0 512 512" height="512" viewBox="0 0 512 512" width="512" xmlns="http://www.w3.org/2000/svg"><g><path d="m437.02 74.98c-48.353-48.351-112.64-74.98-181.02-74.98s-132.667 26.629-181.02 74.98c-48.351 48.353-74.98 112.64-74.98 181.02s26.629 132.667 74.98 181.02c48.353 48.351 112.64 74.98 181.02 74.98s132.667-26.629 181.02-74.98c48.351-48.353 74.98-112.64 74.98-181.02s-26.629-132.667-74.98-181.02zm-14.171 347.869c-44.566 44.568-103.822 69.112-166.849 69.112s-122.282-24.544-166.849-69.112c-44.568-44.566-69.112-103.822-69.112-166.849s24.544-122.283 69.112-166.849c44.567-44.568 103.822-69.112 166.849-69.112s122.283 24.544 166.849 69.112c44.568 44.567 69.112 103.822 69.112 166.849s-24.544 122.283-69.112 166.849z"/><path d="m303.82 144.686c5.262-1.673 8.171-7.295 6.499-12.556-1.673-5.262-7.294-8.171-12.556-6.498s-8.171 7.294-6.498 12.556c1.671 5.261 7.293 8.17 12.555 6.498z"/><path d="m239.377 112.44c-39.281 39.282-41.527 101.782-6.751 143.726l-20.495 20.495-3.543-3.543c-7.814-7.811-20.526-7.813-28.34 0l-69.391 69.392c-13.673 13.673-13.672 35.921 0 49.594 6.624 6.623 15.43 10.271 24.797 10.271s18.174-3.648 24.797-10.271l69.391-69.391c7.813-7.813 7.813-20.526 0-28.34l-3.542-3.542 20.495-20.495c19.696 16.33 43.922 24.501 68.152 24.501 27.368 0 54.738-10.418 75.573-31.252 41.67-41.67 41.67-109.474 0-151.144-41.671-41.671-109.472-41.672-151.143-.001zm-93.095 265.494c-2.839 2.84-6.613 4.402-10.627 4.402s-7.789-1.563-10.627-4.402c-5.86-5.859-5.86-15.394 0-21.254l33.817-33.817 21.254 21.255zm47.987-47.987-21.254-21.255 21.404-21.404 21.255 21.254zm182.082-80.532c-33.858 33.857-88.948 33.858-122.805.001-33.858-33.857-33.857-88.947 0-122.805 33.857-33.857 88.947-33.856 122.804.001s33.858 88.946.001 122.803z"/><path d="m346.359 129.425c-4.877-2.617-10.949-.785-13.566 4.092-2.616 4.876-.785 10.95 4.092 13.566 3.988 2.14 7.652 4.867 10.889 8.105 8.769 8.768 13.598 20.426 13.598 32.826 0 12.401-4.829 24.059-13.598 32.827-8.768 8.769-20.426 13.598-32.826 13.598s-24.059-4.829-32.827-13.598c-15.222-15.221-18.027-38.659-6.824-56.998 2.886-4.722 1.396-10.889-3.326-13.774-4.723-2.885-10.889-1.396-13.774 3.326-16.047 26.265-12.036 59.827 9.753 81.616 12.554 12.553 29.244 19.467 46.997 19.467 17.752 0 34.443-6.914 46.996-19.467s19.467-29.244 19.467-46.997c0-17.752-6.914-34.443-19.467-46.996-4.623-4.627-9.867-8.527-15.584-11.593z"/></g></svg>