<svg id="Layer_1" enable-background="new 0 0 512 512" height="512" viewBox="0 0 512 512" width="512" xmlns="http://www.w3.org/2000/svg"><g><circle cx="466.5" cy="268.72" r="10"/><path d="m158.5 386.002h166c16.542 0 30-13.458 30-30v-70c0-16.542-13.458-30-30-30h-166c-16.542 0-30 13.458-30 30v70c0 16.542 13.458 30 30 30zm-10-100c0-5.514 4.486-10 10-10h166c5.514 0 10 4.486 10 10v70c0 5.514-4.486 10-10 10h-166c-5.514 0-10-4.486-10-10z"/><path d="m272.5 100.002c0-27.57-22.43-50-50-50h-116c-27.57 0-50 22.43-50 50v40c0 16.542 13.458 30 30 30h116c38.599 0 70-31.401 70-70zm-196 40v-40c0-16.542 13.458-30 30-30h116c16.542 0 30 13.458 30 30 0 27.57-22.43 50-50 50h-116c-5.514 0-10-4.486-10-10z"/><path d="m417.807 195.434c-3.076-4.59-9.288-5.814-13.874-2.741l-44.77 30c-4.588 3.075-5.815 9.286-2.741 13.874 1.93 2.879 5.094 4.435 8.316 4.435 1.914 0 3.849-.549 5.558-1.693l44.77-30c4.588-3.077 5.816-9.288 2.741-13.875z"/><path d="m112.703 402.692-44.77 30c-4.588 3.075-5.815 9.286-2.741 13.874 1.93 2.879 5.094 4.435 8.316 4.435 1.914 0 3.849-.549 5.558-1.693l44.77-30c4.588-3.075 5.815-9.286 2.741-13.874-3.077-4.59-9.288-5.815-13.874-2.742z"/><path d="m415.066 432.692-44.77-30c-4.587-3.074-10.799-1.848-13.874 2.741-3.074 4.588-1.847 10.799 2.741 13.874l44.77 30c1.709 1.146 3.644 1.693 5.558 1.693 3.223 0 6.387-1.556 8.316-4.435 3.075-4.586 1.847-10.797-2.741-13.873z"/><path d="m123.836 222.692-44.77-30c-4.586-3.074-10.798-1.848-13.874 2.741-3.074 4.588-1.847 10.799 2.741 13.874l44.77 30c1.709 1.146 3.644 1.693 5.558 1.693 3.223 0 6.387-1.556 8.316-4.435 3.074-4.586 1.847-10.797-2.741-13.873z"/><path d="m502.571 95.231c3.905-3.905 3.905-10.237 0-14.143l-78.158-78.157c-1.876-1.875-4.419-2.929-7.071-2.929s-5.196 1.054-7.071 2.929l-49.85 49.851-49.852-49.852c-1.859-1.86-4.439-2.93-7.069-2.93h-207c-12.15.01-23.94 2.38-35.03 7.08-10.72 4.53-20.34 11.021-28.61 19.28-8.26 8.27-14.75 17.89-19.29 28.609-4.69 11.101-7.07 22.882-7.07 35.031v372c0 6.75 1.319 13.3 3.93 19.46 2.521 5.96 6.12 11.3 10.71 15.9 4.59 4.59 9.94 8.189 15.891 10.71 6.169 2.61 12.719 3.93 19.469 3.93h370c6.75 0 13.3-1.32 19.46-3.93 5.96-2.521 11.3-6.12 15.89-10.71 4.59-4.601 8.2-9.94 10.72-15.9 2.601-6.16 3.931-12.71 3.931-19.46v-148.28c0-5.52-4.49-10-10-10s-10 4.48-10 10v148.28c-.03 16.51-13.49 29.97-30 30h-370c-16.51-.03-29.97-13.49-30-30v-372c0-18.68 7.29-36.26 20.5-49.5 13.239-13.21 30.808-20.49 49.499-20.5h202.859l157.141 157.14v46.58c0 5.511 4.49 10 10 10 5.52 0 10-4.489 10-10 0-.01 0-.01 0-.02v-50.7c0-2.67-1.04-5.18-2.931-7.07l-20.848-20.848zm-85.229-71.086 64.016 64.016-14.278 14.279-64.017-64.016zm-28.422 28.421 64.016 64.015-14.278 14.279-64.016-64.016z"/></g></svg>