<svg id="Layer_1" enable-background="new 0 0 512.001 512.001" height="512" viewBox="0 0 512.001 512.001" width="512" xmlns="http://www.w3.org/2000/svg"><g><g><path d="m449.213 392.502-71.256-71.256c-7.619-7.618-17.38-11.544-27.515-11.042-10.247.503-20.307 5.413-29.092 14.199-26.362 26.362-43.969 39.546-58.873 44.084-14.562 4.432-27.787.953-45.647-12.011-4.471-3.245-10.723-2.252-13.967 2.218s-2.251 10.723 2.218 13.967c22.96 16.667 42.46 21.28 63.222 14.958 11.957-3.641 24.322-10.876 39.461-23.425l95.749 95.749c-57.139 34.589-167.507 69.205-294.351-57.074-126.31-126.875-91.695-237.245-57.106-294.383l95.749 95.749c-12.549 15.14-19.785 27.506-23.426 39.464-6.321 20.763-1.707 40.262 14.962 63.225 3.244 4.469 9.497 5.461 13.967 2.218 4.47-3.245 5.462-9.498 2.218-13.967-12.967-17.863-16.448-31.088-12.014-45.65 4.537-14.904 17.721-32.511 44.084-58.874 17.874-17.873 19.143-40.621 3.158-56.606l-71.254-71.256c-1.792-1.858-12.642-12.234-30.019-10.621-17.907 1.662-35.234 15.48-51.5 41.071-18.405 28.956-39.909 75.581-37.843 133.259 2.349 65.534 34.262 129.622 94.883 190.515 60.861 60.59 124.949 92.502 190.483 94.851 2.598.093 5.164.138 7.717.138 54.116-.002 97.89-20.405 125.542-37.981 25.591-16.265 39.409-33.592 41.071-51.5 1.612-17.373-8.763-28.227-10.621-30.019zm-358.193-320.388c8.137-.889 13.422 3.922 14.063 4.541.086.097.057.059.191.194l71.339 71.338c7.996 7.997 6.845 18.319-3.158 28.322-4.463 4.463-8.571 8.695-12.357 12.734l-97.552-97.553c11.715-14.686 21.166-18.888 27.474-19.576zm348.899 348.559c-.591 6.367-4.728 15.92-19.606 27.785l-97.555-97.555c4.039-3.786 8.272-7.895 12.735-12.358 5.217-5.217 10.726-8.109 15.931-8.365 5.654-.273 9.861 2.679 12.391 5.208l71.339 71.339c.081.081.163.16.246.237.052.05 5.295 5.353 4.519 13.709z"/><path d="m440.53 71.472c-46.09-46.089-107.368-71.472-172.543-71.472-17.683 0-32.07 14.386-32.07 32.069 0 17.684 14.387 32.07 32.07 32.07 48.049 0 93.22 18.71 127.192 52.683 33.974 33.973 52.684 79.145 52.684 127.193 0 17.683 14.386 32.07 32.069 32.07s32.069-14.387 32.069-32.07c0-65.177-25.383-126.454-71.471-172.543zm39.402 184.613c-6.655 0-12.069-5.415-12.069-12.07 0-53.391-20.79-103.584-58.541-141.335-37.75-37.751-87.944-58.541-141.335-58.541-6.655 0-12.07-5.415-12.07-12.07s5.414-12.069 12.07-12.069c59.834 0 116.089 23.302 158.4 65.615 42.312 42.311 65.614 98.565 65.614 158.4 0 6.655-5.414 12.07-12.069 12.07z"/><path d="m324.955 187.046c15.215 15.216 23.595 35.448 23.595 56.97 0 17.683 14.387 32.069 32.069 32.069 17.684 0 32.069-14.386 32.069-32.069 0-38.65-15.053-74.988-42.384-102.319-27.332-27.332-63.67-42.384-102.319-42.384-17.683 0-32.069 14.386-32.069 32.069 0 17.684 14.386 32.07 32.069 32.07 21.523 0 41.755 8.379 56.97 23.594zm-69.038-55.664c0-6.655 5.415-12.069 12.069-12.069 33.308 0 64.623 12.972 88.177 36.526 23.555 23.554 36.526 54.869 36.526 88.177 0 6.655-5.414 12.069-12.069 12.069s-12.069-5.415-12.069-12.069c0-26.864-10.46-52.118-29.452-71.112-18.993-18.993-44.248-29.452-71.112-29.452-6.656 0-12.07-5.415-12.07-12.07z"/><path d="m177.269 324.733c-5.523 0-9.996 4.477-9.996 10s4.48 10 10.003 10 10-4.477 10-10-4.477-10-10-10z"/></g></g></svg>