<svg id="Capa_1" enable-background="new 0 0 512.002 512.002" height="512" viewBox="0 0 512.002 512.002" width="512" xmlns="http://www.w3.org/2000/svg"><g><g><path d="m504.518 160.379-98.29-79.302c-6.052-5.306-14.715-6.606-22.166-3.302-7.439 3.299-12.061 10.334-12.061 18.362v39.896h-222.001c-39.942 0-77.576 15.637-105.97 44.03s-44.03 66.028-44.03 105.971c0 39.942 15.637 77.576 44.03 105.97 28.394 28.393 66.028 44.03 105.97 44.03h167c13.785 0 25-11.215 25-25v-30.001c0-13.785-11.215-25-25-25h-167c-18.579 0-36.125-7.314-49.405-20.594-13.281-13.28-20.595-30.827-20.595-49.406s7.314-36.125 20.595-49.405c13.28-13.28 30.826-20.594 49.405-20.594h70.998c5.523 0 10-4.477 10-10s-4.477-10-10-10h-70.998c-23.921 0-46.49 9.395-63.547 26.452-17.058 17.058-26.453 39.626-26.453 63.547s9.394 46.49 26.452 63.548 39.626 26.452 63.547 26.452h167c2.71 0 5 2.29 5 5v30.001c0 2.71-2.29 5-5 5h-166.999c-34.6 0-67.211-13.557-91.827-38.173s-38.173-57.228-38.173-91.827c0-34.6 13.557-67.212 38.173-91.828s57.227-38.173 91.827-38.173h232.002c5.523 0 10-4.477 10-10l.003-49.884c.107-.076.319-.175.564-.19.261-.018.368.06.479.162.142.128.286.252.435.372l98.458 79.496c-.037.029-.073.058-.109.087l-98.811 79.722c-.178.144-.292.179-.492.152-.237-.032-.435-.149-.528-.231v-49.684c0-5.523-4.477-10-10-10h-71.004c-5.523 0-10 4.477-10 10s4.477 10 10 10h61.004v39.74c-.004 7.761 4.435 14.705 11.584 18.124 7.308 3.493 15.738 2.519 21.999-2.538l98.76-79.681c4.823-3.811 7.612-9.487 7.656-15.584.046-6.112-2.68-11.838-7.482-15.717z"/><path d="m265.994 196.034c-5.523 0-9.996 4.477-9.996 10s4.48 10 10.003 10 10-4.477 10-10-4.477-10-10-10z"/></g></g></svg>