<svg id="Capa_1" enable-background="new 0 0 512 512" height="512" viewBox="0 0 512 512" width="512" xmlns="http://www.w3.org/2000/svg"><g id="XMLID_403_"><g id="XMLID_182_"><path id="XMLID_666_" d="m54 160v192c0 5.522 4.478 10 10 10h164c5.523 0 10-4.478 10-10v-192c0-5.523-4.477-10-10-10h-164c-5.522 0-10 4.477-10 10zm24.743 182c4.2-29.67 27.646-53.227 57.257-57.616v17.283c0 5.523 4.477 10 10 10s10-4.477 10-10v-17.283c29.611 4.389 53.057 27.945 57.257 57.616zm45.982-99.636v-6.255c0-11.732 9.544-21.275 21.275-21.275s21.275 9.544 21.275 21.275v6.255c0 11.731-9.544 21.275-21.275 21.275s-21.275-9.543-21.275-21.275zm93.275-72.364v131.155c-10.044-14.303-24.236-25.487-40.815-31.797 6.278-7.243 10.09-16.679 10.09-26.994v-6.255c0-22.76-18.516-41.275-41.275-41.275s-41.275 18.516-41.275 41.275v6.255c0 10.315 3.812 19.751 10.09 26.994-16.579 6.31-30.771 17.494-40.815 31.797v-131.155z"/><path id="XMLID_691_" d="m502 74h-201c-5.522 0-10 4.478-10 10s4.478 10 10 10h191v324h-472v-324h191c5.523 0 10-4.478 10-10s-4.477-10-10-10h-201c-5.523 0-10 4.478-10 10v344c0 5.522 4.477 10 10 10h492c5.522 0 10-4.478 10-10v-344c0-5.522-4.478-10-10-10z"/><path id="XMLID_694_" d="m282 218h166c5.522 0 10-4.477 10-10v-48c0-5.523-4.478-10-10-10h-166c-5.522 0-10 4.477-10 10v48c0 5.523 4.478 10 10 10zm10-48h146v28h-146z"/><path id="XMLID_695_" d="m282 266h19.167c5.523 0 10-4.478 10-10 0-5.523-4.477-10-10-10h-19.167c-5.522 0-10 4.477-10 10 0 5.522 4.478 10 10 10z"/><path id="XMLID_696_" d="m448 246h-102.833c-5.522 0-10 4.477-10 10 0 5.522 4.478 10 10 10h102.833c5.522 0 10-4.478 10-10 0-5.523-4.478-10-10-10z"/><path id="XMLID_697_" d="m282 314h19.167c5.523 0 10-4.478 10-10s-4.477-10-10-10h-19.167c-5.522 0-10 4.478-10 10s4.478 10 10 10z"/><path id="XMLID_698_" d="m448 294h-102.833c-5.522 0-10 4.478-10 10s4.478 10 10 10h102.833c5.522 0 10-4.478 10-10s-4.478-10-10-10z"/><path id="XMLID_699_" d="m282 362h19.167c5.523 0 10-4.478 10-10s-4.477-10-10-10h-19.167c-5.522 0-10 4.478-10 10s4.478 10 10 10z"/><path id="XMLID_700_" d="m448 342h-102.833c-5.522 0-10 4.478-10 10s4.478 10 10 10h102.833c5.522 0 10-4.478 10-10s-4.478-10-10-10z"/><path id="XMLID_701_" d="m256 94c2.63 0 5.21-1.07 7.069-2.931 1.861-1.859 2.931-4.439 2.931-7.069s-1.07-5.21-2.931-7.07c-1.859-1.861-4.439-2.93-7.069-2.93s-5.21 1.069-7.07 2.93c-1.86 1.86-2.93 4.44-2.93 7.07s1.069 5.21 2.93 7.069c1.86 1.861 4.44 2.931 7.07 2.931z"/></g></g></svg>