<svg id="Layer_1" enable-background="new 0 0 512.099 512.099" height="512" viewBox="0 0 512.099 512.099" width="512" xmlns="http://www.w3.org/2000/svg"><g id="XMLID_2259_"><g id="XMLID_2099_"><path id="XMLID_2110_" d="m112.099 156.05c-2.63 0-5.21 1.07-7.07 2.93s-2.93 4.44-2.93 7.07 1.07 5.21 2.93 7.07 4.44 2.93 7.07 2.93 5.21-1.07 7.07-2.93 2.93-4.44 2.93-7.07-1.07-5.21-2.93-7.07c-1.86-1.861-4.44-2.93-7.07-2.93z"/><path id="XMLID_2111_" d="m374.769 156.05c-2.64 0-5.21 1.07-7.08 2.93-1.86 1.86-2.92 4.44-2.92 7.07s1.06 5.21 2.92 7.07c1.87 1.86 4.45 2.93 7.08 2.93s5.21-1.07 7.07-2.93 2.93-4.44 2.93-7.07-1.07-5.21-2.93-7.07c-1.86-1.861-4.44-2.93-7.07-2.93z"/><path id="XMLID_2115_" d="m476.029 93.827-83.887-25.052-54.56-30.102c-22.081-12.183-47.084-18.623-72.304-18.623h-55.558c-41.783 0-81.546 17.441-109.831 48h-48.819c-3.026 0-5.89 1.371-7.788 3.728l-41.07 50.997c-1.898 2.357-2.627 5.447-1.982 8.404l11.607 53.198c1.002 4.593 5.069 7.868 9.77 7.868h38.77c9.587 18.852 29.164 31.806 51.722 31.806s42.136-12.954 51.722-31.806h159.222c9.587 18.852 29.164 31.806 51.722 31.806s42.136-12.954 51.722-31.806h75.611c5.523 0 10-4.477 10-10v-40c.001-22.165-14.831-42.075-36.069-48.418zm14.347 38.417h-20.555c-3.707 0-6.722-3.016-6.722-6.722v-14.683l7.207 2.152c9.511 2.84 16.885 10.189 20.07 19.253zm-280.655-92.194h55.558c21.85 0 43.511 5.579 62.643 16.135l21.506 11.865h-220.197c22.727-17.995 51.031-28 80.49-28zm50.521 132.194-84.195-84.194h34.562l84.194 84.194zm-148.143 31.806c-20.953 0-38-17.047-38-38s17.047-38 38-38 38 17.047 38 38-17.047 38-38 38zm0-96c-31.981 0-58 26.019-58 58 0 2.093.117 4.158.335 6.194h-24.774l-8.87-40.653 35.067-43.541h91.906l84.194 84.194h-62.192c.217-2.036.335-4.102.335-6.194-.001-31.982-26.019-58-58.001-58zm262.667 96c-20.953 0-38-17.047-38-38s17.047-38 38-38 38 17.047 38 38-17.047 38-38 38zm57.665-31.806c.217-2.036.335-4.102.335-6.194 0-31.981-26.019-58-58-58-31.939 0-57.928 25.951-57.997 57.874l-77.874-77.874h147.897l56.307 16.816v20.656c0 14.735 11.987 26.722 26.722 26.722h22.278v20z"/><path id="XMLID_2122_" d="m112.099 424.05c-2.63 0-5.21 1.07-7.07 2.93s-2.93 4.44-2.93 7.07 1.07 5.21 2.93 7.07 4.44 2.93 7.07 2.93 5.21-1.07 7.07-2.93 2.93-4.44 2.93-7.07-1.07-5.21-2.93-7.07c-1.86-1.861-4.44-2.93-7.07-2.93z"/><path id="XMLID_2123_" d="m374.769 424.05c-2.64 0-5.21 1.07-7.08 2.93-1.86 1.86-2.92 4.44-2.92 7.07s1.06 5.21 2.92 7.07c1.87 1.86 4.44 2.93 7.08 2.93 2.63 0 5.21-1.07 7.07-2.93s2.93-4.44 2.93-7.07-1.07-5.21-2.93-7.07c-1.86-1.861-4.44-2.93-7.07-2.93z"/><path id="XMLID_2136_" d="m476.029 361.827-83.887-25.052-54.56-30.102c-22.083-12.183-47.085-18.623-72.305-18.623h-10.557c-5.523 0-10 4.477-10 10s4.477 10 10 10h10.557c21.85 0 43.511 5.579 62.643 16.135l21.506 11.865h-220.185c11.71-9.267 24.987-16.487 39.244-21.269 5.236-1.757 8.057-7.425 6.301-12.661-1.757-5.236-7.426-8.056-12.661-6.301-23.793 7.982-45.217 21.85-62.236 40.231h-48.819c-3.026 0-5.89 1.371-7.788 3.728l-41.07 50.997c-1.898 2.357-2.627 5.447-1.982 8.404l11.607 53.198c1.002 4.593 5.069 7.868 9.77 7.868h38.77c9.587 18.852 29.164 31.806 51.722 31.806s42.136-12.954 51.722-31.806h159.222c9.587 18.852 29.164 31.806 51.722 31.806s42.136-12.954 51.722-31.806h75.611c5.523 0 10-4.477 10-10v-40c.001-22.165-14.831-42.075-36.069-48.418zm14.347 38.417h-20.555c-3.707 0-6.722-3.016-6.722-6.722v-14.683l7.207 2.152c9.511 2.84 16.885 10.189 20.07 19.253zm-230.134 40-84.194-84.194h34.562l84.194 84.194zm-148.143 31.806c-20.953 0-38-17.047-38-38s17.047-38 38-38 38 17.047 38 38-17.047 38-38 38zm0-96c-31.981 0-58 26.019-58 58 0 2.093.117 4.158.335 6.194h-24.774l-8.87-40.653 35.066-43.541h91.906l84.194 84.194h-62.192c.217-2.036.335-4.102.335-6.194 0-31.982-26.018-58-58-58zm262.667 96c-20.953 0-38-17.047-38-38s17.047-38 38-38 38 17.047 38 38-17.047 38-38 38zm57.665-31.806c.217-2.036.335-4.102.335-6.194 0-31.981-26.019-58-58-58-31.939 0-57.928 25.951-57.997 57.874l-77.874-77.874h147.897l56.307 16.816v20.656c0 14.735 11.987 26.722 26.722 26.722h22.278v20z"/><path id="XMLID_2153_" d="m216.789 305.119c1.86-1.86 2.93-4.44 2.93-7.07s-1.07-5.21-2.93-7.07-4.44-2.93-7.07-2.93-5.21 1.07-7.07 2.93-2.93 4.44-2.93 7.07 1.07 5.21 2.93 7.07 4.44 2.93 7.07 2.93c2.63.001 5.21-1.07 7.07-2.93z"/></g></g></svg>