<svg id="Capa_1" enable-background="new 0 0 512.004 512.004" height="512" viewBox="0 0 512.004 512.004" width="512" xmlns="http://www.w3.org/2000/svg"><g id="XMLID_1195_"><g id="XMLID_2238_"><g id="XMLID_2240_"><g id="XMLID_2241_"><path id="XMLID_175_" d="m255.845 237.288c-7.063 0-14.127-2.688-19.505-8.066-3.905-3.905-3.905-10.237 0-14.143 3.906-3.905 10.236-3.905 14.143 0 2.957 2.958 7.769 2.958 10.726 0 3.906-3.905 10.236-3.905 14.143 0 3.905 3.905 3.905 10.237 0 14.143-5.379 5.378-12.443 8.066-19.507 8.066z"/></g></g><path id="XMLID_180_" d="m435.649 218.628h-15.667c10.423-11.193 16.816-26.185 16.816-42.65v-19.192c0-34.545-28.104-62.65-62.649-62.65-5.203 0-10.374.654-15.384 1.92v-32.054c0-5.523-4.478-10-10-10h-29.21c-5.522 0-10 4.477-10 10s4.478 10 10 10h19.21v34.646c0 22.802-18.551 41.354-41.354 41.354h-109.21v-34.646c0-22.802 18.551-41.354 41.354-41.354 5.522 0 10-4.477 10-10s-4.478-10-10-10c-29.504 0-54.205 20.936-60.042 48.731-9.494-5.565-20.383-8.597-31.659-8.597-34.546 0-62.65 28.105-62.65 62.65v19.192c0 16.465 6.394 31.457 16.816 42.65h-15.665c-42.102 0-76.355 34.253-76.355 76.355v77.645c0 5.523 4.478 10 10 10h64v65.374c0 5.523 4.478 10 10 10h344c5.522 0 10-4.477 10-10v-65.374h64.004c5.522 0 10-4.477 10-10v-77.645c0-42.102-34.253-76.355-76.355-76.355zm-91.441-26.046v-44.318c7.317-8.63 12.297-19.297 13.951-31.021 5.052-2.038 10.493-3.107 15.99-3.107 23.517 0 42.649 19.133 42.649 42.65v19.192c0 23.517-19.133 42.65-42.649 42.65-11.818 0-22.845-4.782-30.876-13.239.613-4.182.935-8.457.935-12.807zm-156.006-22.58h109.21c9.603 0 18.695-2.222 26.796-6.172v28.752c0 37.496-30.506 68-68.003 68s-68.003-30.505-68.003-68zm135.139 139.73 22.114 22.115-17.48 17.479c-1.875 1.875-2.929 4.419-2.929 7.071s1.054 5.196 2.929 7.071l18.484 18.483-20.83 56.05h-24.56v-128.27h22.272zm-136.845 128.27-20.829-56.05 18.483-18.484c3.905-3.905 3.905-10.237 0-14.142l-17.479-17.479 22.115-22.115h22.271v128.27zm44.561-114.368 17.966 17.809c1.949 1.932 4.494 2.898 7.04 2.898 2.547 0 5.094-.967 7.043-2.901l17.964-17.823v114.385h-50.013zm49.98-28.159-24.978 24.782-25.003-24.785v-18.559c7.971 2.383 16.412 3.669 25.148 3.669 8.622 0 16.953-1.255 24.832-3.578v18.471zm-185.832-138.688c0-23.518 19.133-42.65 42.65-42.65 11.467 0 22.351 4.6 30.347 12.702v65.744c0 4.219.305 8.367.882 12.429-8.056 8.694-19.219 13.618-31.229 13.618-23.518 0-42.65-19.133-42.65-42.65zm-21.205 198.945v6.896h-54v-67.645c0-31.074 25.281-56.355 56.355-56.355h104.897c7.425 12.041 17.671 22.162 29.804 29.449v21.655h-71.056c-36.393 0-66 29.607-66 66zm20 0c0-25.364 20.636-46 46-46h20.501l-15.044 15.043c-1.875 1.875-2.929 4.419-2.929 7.071s1.054 5.196 2.929 7.071l17.48 17.479-15.951 15.951c-2.765 2.765-3.665 6.889-2.303 10.554l20.476 55.099h-71.159zm324 82.27h-71.034l20.477-55.099c1.362-3.666.462-7.789-2.303-10.555l-15.951-15.951 17.479-17.479c3.905-3.905 3.905-10.237 0-14.142l-15.043-15.044h20.375c25.364 0 46 20.636 46 46zm74.004-75.374h-54.004v-6.896c0-36.393-29.607-66-66-66h-70.963v-21.465c12.273-7.3 22.635-17.491 30.125-29.638h104.488c31.074 0 56.354 25.281 56.354 56.355z"/></g><g id="XMLID_1125_"><g id="XMLID_1130_"><path id="XMLID_169_" d="m274.554 74.002c-2.63 0-5.21-1.07-7.07-2.93-1.859-1.86-2.93-4.44-2.93-7.07s1.07-5.21 2.93-7.07 4.44-2.93 7.07-2.93 5.21 1.07 7.07 2.93c1.859 1.86 2.93 4.44 2.93 7.07s-1.07 5.21-2.93 7.07-4.431 2.93-7.07 2.93z"/></g></g></g></svg>