<svg id="Capa_1" enable-background="new 0 0 512 512" height="512" viewBox="0 0 512 512" width="512" xmlns="http://www.w3.org/2000/svg"><g><g><path d="m467.164 208.386h-59.366v-59.354c0-5.523-4.477-10-10-10h-59.354v-59.357c0-5.523-4.477-10-10-10h-131.803v-59.675c0-5.523-4.477-10-10-10s-10 4.477-10 10v59.675h-131.805c-5.523 0-10 4.477-10 10v283.608c0 5.523 4.477 10 10 10h59.359v59.364c0 5.523 4.477 10 10 10h59.354v59.353c0 5.523 4.477 10 10 10h283.614c5.523 0 10-4.477 10-10v-283.614c.001-5.523-4.476-10-9.999-10zm-412.328-118.711h121.804v164.454l-59.42-59.421c-3.905-3.905-10.237-3.905-14.143 0-3.905 3.905-3.905 10.237 0 14.143l76.492 76.492c3.845 3.845 10.298 3.845 14.143 0l76.492-76.492c3.905-3.905 3.905-10.237 0-14.143-3.905-3.905-10.237-3.905-14.143 0l-59.42 59.421v-164.454h121.804v59.358 204.248h-204.249c-.013 0-.026.002-.039.002h-59.321zm402.328 402.325h-263.614v-49.354h204.248c5.523 0 10-4.477 10-10v-62.456c0-5.523-4.477-10-10-10s-10 4.477-10 10v52.457h-204.248-59.354v-49.364h204.249c5.523 0 10-4.477 10-10v-.002-204.248h49.354v59.354 63.784c0 5.523 4.477 10 10 10s10-4.477 10-10v-53.784h49.366v263.613z"/><path d="m407.03 322.35c-2.095-5.026-8.024-7.486-13.06-5.4-5.034 2.085-7.493 8.026-5.41 13.06 2.086 5.039 8.033 7.473 13.06 5.4 5.053-2.085 7.475-8.017 5.41-13.06z"/></g></g></svg>