<svg id="Layer_1" enable-background="new 0 0 512 512" height="512" viewBox="0 0 512 512" width="512" xmlns="http://www.w3.org/2000/svg"><g><circle cx="256" cy="502" r="10"/><path d="m443.07 2.93c-1.86-1.86-4.44-2.93-7.07-2.93h-360c-2.63 0-5.21 1.07-7.07 2.93s-2.93 4.44-2.93 7.07v492c0 2.63 1.07 5.21 2.93 7.07s4.44 2.93 7.07 2.93h135c5.51 0 10-4.49 10-10s-4.49-10-10-10h-125v-472h340v472h-125c-5.51 0-10 4.49-10 10s4.49 10 10 10h135c2.63 0 5.21-1.07 7.07-2.93s2.93-4.44 2.93-7.07v-492c0-2.63-1.07-5.21-2.93-7.07z"/><path d="m166 322h-40c-5.523 0-10 4.477-10 10s4.477 10 10 10h40c5.523 0 10-4.477 10-10s-4.477-10-10-10z"/><path d="m211 322c-5.523 0-10 4.477-10 10s4.477 10 10 10h38c5.523 0 10-4.477 10-10s-4.477-10-10-10z"/><path d="m271 280c-5.523 0-9.995 4.477-9.995 10s4.482 10 10.005 10 10-4.477 10-10-4.477-10-10-10z"/><path d="m236 290c0-5.523-4.477-10-10-10h-100c-5.523 0-10 4.477-10 10s4.477 10 10 10h100c5.523 0 10-4.477 10-10z"/><path d="m126 260h260c5.523 0 10-4.477 10-10s-4.477-10-10-10h-260c-5.523 0-10 4.477-10 10s4.477 10 10 10z"/><path d="m116 210c0 5.523 4.477 10 10 10h260c5.523 0 10-4.477 10-10s-4.477-10-10-10h-260c-5.523 0-10 4.477-10 10z"/><path d="m156 180h230c5.523 0 10-4.477 10-10s-4.477-10-10-10h-230c-5.523 0-10 4.477-10 10s4.477 10 10 10z"/><path d="m269 105c0 5.523 4.477 10 10 10h77c5.523 0 10-4.477 10-10s-4.477-10-10-10h-77c-5.523 0-10 4.477-10 10z"/><path d="m146 105c0 5.523 4.477 10 10 10h78c5.523 0 10-4.477 10-10s-4.477-10-10-10h-78c-5.523 0-10 4.477-10 10z"/><path d="m306 55h-100c-5.523 0-10 4.477-10 10s4.477 10 10 10h100c5.523 0 10-4.477 10-10s-4.477-10-10-10z"/><path d="m164 416h-38c-5.523 0-10 4.477-10 10s4.477 10 10 10h38c5.523 0 10-4.477 10-10s-4.477-10-10-10z"/><path d="m209 436h40c5.523 0 10-4.477 10-10s-4.477-10-10-10h-40c-5.523 0-10 4.477-10 10s4.477 10 10 10z"/><path d="m404 379c0-38.598-31.402-70-70-70s-70 31.402-70 70 31.402 70 70 70 70-31.402 70-70zm-120 0c0-27.57 22.43-50 50-50s50 22.43 50 50-22.43 50-50 50-50-22.43-50-50z"/><path d="m364 379c0-16.542-13.458-30-30-30s-30 13.458-30 30 13.458 30 30 30 30-13.458 30-30zm-40 0c0-5.514 4.486-10 10-10s10 4.486 10 10-4.486 10-10 10-10-4.486-10-10z"/></g></svg>