<svg id="Capa_1" enable-background="new 0 0 502.208 502.208" height="512" viewBox="0 0 502.208 502.208" width="512" xmlns="http://www.w3.org/2000/svg"><g><path d="m433.254 220.521c-3.045-4.527-9.315-5.797-13.87-2.77-4.547 3.022-5.762 9.339-2.76 13.87 3.014 4.548 9.345 5.765 13.87 2.76 4.538-3.015 5.772-9.34 2.76-13.86z"/><path d="m66.677 399.226c0 8.013 3.121 15.547 8.787 21.213l72.983 72.982c5.666 5.666 13.2 8.787 21.213 8.787h235.871c16.542 0 30-13.458 30-30v-206.092c0-12.84-20-12.859-20 0v206.092c0 5.514-4.486 10-10 10h-232.862v-56.42c0-16.542-13.458-30-30-30h-55.992v-220.993h328.854v10.525c0 12.84 20 12.859 20 0v-155.32c0-16.542-13.458-30-30-30h-308.854c-16.542 0-30 13.458-30 30zm75.992 16.562c5.514 0 10 4.486 10 10v43.572l-53.572-53.572zm272.862-260.993h-328.854v-124.795c0-5.514 4.486-10 10-10h308.854c5.514 0 10 4.486 10 10z"/><path d="m193.177 88.31 21.689-34.756c6.119-9.798-13.213-19.273-18.031-10.322l-17.378 30.313-17.378-30.313c-4.825-8.95-24.159.531-18.031 10.322l21.69 34.756-22.604 34.886c-5.328 8.883 12.632 19.003 17.247 11.629l19.077-32.404 19.077 32.404c4.158 7.389 22.653-2.622 17.247-11.629z"/><path d="m281.764 118.362h-29.791v-71.602c0-8.554-20.383-8.555-20.383 0v83.1c0 4.622 5.091 6.272 8.885 6.272h41.289c8.068 0 8.067-17.77 0-17.77z"/><path d="m351.274 85.893c-6.091-4.436-12.969-8.005-19.991-10.714-13.27-5.116-12.755-17.574 2.352-17.574 8.358 0 23.498 10.922 25.578-3.298 1.566-10.704-10.146-13.165-18.457-14.067-10.675-1.159-21.782.163-30.771 6.456-10.829 7.58-12.949 24.652-5.553 35.344 5.45 7.888 14.089 11.733 22.604 15.483 5.629 2.483 15.807 7.092 14.358 14.841-2.089 11.175-20.147 7.651-25.856 2.21-13.677-12.996-24.625 8.571-8.297 17.639 13.301 7.391 33.623 7.803 45.731-2.278 12.903-10.744 11.828-34.187-1.698-44.042z"/><path d="m305.003 252.547c-5.523 0-10 4.477-10 10v108.575c0 5.523 4.477 10 10 10h38.176c5.523 0 10-4.477 10-10v-108.575c0-5.523-4.477-10-10-10zm28.176 108.576h-18.176v-88.575h18.176z"/><path d="m233.016 295c-5.523 0-10 4.477-10 10v66.123c0 5.523 4.477 10 10 10h38.177c5.523 0 10-4.477 10-10v-66.123c0-5.523-4.477-10-10-10zm28.176 66.123h-18.177v-46.123h18.177z"/><path d="m161.029 228.877c-5.523 0-10 4.477-10 10v132.245c0 5.523 4.477 10 10 10h38.176c5.523 0 10-4.477 10-10v-132.245c0-5.523-4.477-10-10-10zm28.176 132.246h-18.176v-112.246h18.176z"/></g></svg>