<svg id="Layer_1" enable-background="new 0 0 512 512" height="512" viewBox="0 0 512 512" width="512" xmlns="http://www.w3.org/2000/svg"><path d="m467.83 266.18c-4.122 0-7.897-2.612-9.357-6.464-1.455-3.838-.349-8.349 2.756-11.052 3.204-2.789 7.909-3.242 11.592-1.137 3.653 2.089 5.613 6.404 4.82 10.532-.895 4.654-5.064 8.121-9.811 8.121z"/><path d="m432.478 512h-352.955c-25.004 0-45.347-20.343-45.347-45.348v-421.304c-.001-25.005 20.342-45.348 45.347-45.348h352.955c25.004 0 45.347 20.343 45.347 45.348v165.446c0 5.523-4.477 10-10 10s-10-4.477-10-10v-165.446c0-13.977-11.371-25.348-25.347-25.348h-352.955c-13.977 0-25.347 11.371-25.347 25.348v421.305c0 13.977 11.371 25.348 25.347 25.348h352.955c13.977 0 25.347-11.371 25.347-25.348v-165.447c0-5.522 4.477-10 10-10s10 4.478 10 10v165.446c0 25.005-20.343 45.348-45.347 45.348z"/><path d="m411.449 349.299v-264.152c0-17.671-14.376-32.048-32.048-32.048-17.671 0-32.047 14.377-32.047 32.048v261.357c-18.104 10.383-30.325 29.906-30.325 52.23 0 33.175 26.99 60.165 60.165 60.165s60.164-26.99 60.164-60.165c-.001-20.455-10.263-38.56-25.909-49.435zm-44.096-264.152c0-6.644 5.405-12.048 12.048-12.048s12.047 5.404 12.047 12.048v255.129c-4.572-1.115-9.346-1.706-14.256-1.706-3.35 0-6.637.275-9.839.804zm9.84 353.753c-22.147 0-40.165-18.018-40.165-40.165 0-22.148 18.018-40.165 40.165-40.165s40.164 18.018 40.164 40.165c0 22.148-18.017 40.165-40.164 40.165z"/><path d="m324.48 266.161c0-21.404-11.235-40.232-28.117-50.9v-130.114c0-17.671-14.377-32.048-32.048-32.048s-32.047 14.377-32.047 32.048v130.114c-16.882 10.667-28.117 29.496-28.117 50.9s11.235 40.233 28.117 50.901v109.791c0 17.671 14.376 32.048 32.048 32.048 17.671 0 32.047-14.377 32.047-32.048v-109.792c16.882-10.667 28.117-29.496 28.117-50.9zm-72.212-181.014c0-6.644 5.405-12.048 12.048-12.048s12.047 5.404 12.047 12.048v122.062c-3.894-.794-7.923-1.212-12.048-1.212s-8.154.417-12.047 1.212zm24.095 341.706c0 6.644-5.405 12.048-12.048 12.048s-12.047-5.404-12.047-12.048v-101.739c3.893.794 7.923 1.212 12.047 1.212 4.125 0 8.154-.418 12.048-1.212zm-12.048-120.527c-22.147 0-40.165-18.018-40.165-40.165 0-22.146 18.018-40.164 40.165-40.164s40.165 18.018 40.165 40.164c0 22.148-18.018 40.165-40.165 40.165z"/><path d="m204.978 163.313c0-21.404-11.235-40.233-28.117-50.9v-27.266c0-17.671-14.376-32.048-32.048-32.048-17.671 0-32.047 14.377-32.047 32.048v27.264c-16.882 10.667-28.117 29.497-28.117 50.901s11.235 40.233 28.117 50.9v212.64c0 17.671 14.377 32.048 32.047 32.048 17.671 0 32.048-14.377 32.048-32.048v-212.64c16.882-10.667 28.117-29.496 28.117-50.899zm-72.212-78.166c0-6.644 5.404-12.048 12.047-12.048s12.048 5.404 12.048 12.048v19.212c-3.894-.794-7.923-1.212-12.048-1.212s-8.154.417-12.047 1.212zm24.095 341.706c0 6.644-5.405 12.048-12.048 12.048s-12.047-5.404-12.047-12.048v-204.588c3.894.794 7.923 1.212 12.047 1.212 4.125 0 8.154-.417 12.048-1.212zm-12.048-223.376c-22.147 0-40.165-18.018-40.165-40.164 0-22.148 18.018-40.165 40.165-40.165s40.165 18.017 40.165 40.165c0 22.146-18.018 40.164-40.165 40.164z"/></svg>