<svg height="512pt" viewBox="-44 0 512 512" width="512pt" xmlns="http://www.w3.org/2000/svg"><path d="m418.40625 449.875-96.832031-155.101562v-260.347657c0-18.984375-15.445313-34.425781-34.425781-34.425781h-185.398438c-.324219 0-.648438.015625-.976562.0234375-.011719 0-.027344 0-.039063 0-.042969 0-.082031.0039063-.121094.0039063-.792969.015625-1.582031.046875-2.371093.0976562-.039063 0-.070313.003906-.109376.007812-12.84375.832032-24.699218 6.039063-33.867187 14.425782l-46.210937 42.269531c-11.238282 10.273437-18.054688 25.261719-18.054688 40.980469v327.480468c0 18.066407 14.695312 32.761719 32.761719 32.761719h59.921875c-3.820313 10.796875-2.898438 22.636719 2.863281 33.03125 7.265625 13.097657 20.542969 20.917969 35.519531 20.917969h252.886719c14.980469 0 28.257813-7.820312 35.519531-20.917969 7.265625-13.097656 6.867188-28.503906-1.066406-41.207031zm-327.488281-428.175781v49.03125c0 5.96875-4.855469 10.824219-10.824219 10.824219h-56.144531c1.835937-3.574219 4.441406-7.078126 7.605469-9.96875 47.554687-43.476563 49.042968-46.59375 59.363281-49.886719zm-70.917969 403.589843v-323.730468h60.09375c16.996094 0 30.824219-13.828125 30.824219-30.824219v-50.734375h176.230469c7.953124 0 14.425781 6.472656 14.425781 14.425781v228.3125c-8.476563-12.984375-10.148438-17.871093-16.609375-23.824219-7.449219-6.859374-17.15625-10.671874-27.453125-10.671874-14.105469 0-26.984375 7.140624-34.453125 19.105468l-9.378906 15.023438h-135.074219c-5.519531 0-10 4.476562-10 10 0 5.519531 4.480469 10 10 10h122.585937l-29.789062 47.714844h-92.796875c-5.519531 0-10 4.476562-10 10 0 5.523437 4.480469 10 10 10h80.308593l-54.917968 87.964843h-71.234375c-7.035157 0-12.761719-5.722656-12.761719-12.761719zm381.984375 56.09375c-3.6875 6.648438-10.425781 10.617188-18.03125 10.617188h-252.886719c-7.601562 0-14.34375-3.96875-18.03125-10.617188-3.683594-6.648437-3.480468-14.46875.542969-20.914062l126.445313-202.53125c8.085937-12.949219 26.878906-12.96875 34.972656 0l28.09375 45c.003906.003906.007812.007812.011718.011719l98.339844 157.519531c4.027344 6.445312 4.230469 14.265625.542969 20.914062zm0 0"/><path d="m229.472656 386.9375c.398438 15.316406 12.714844 27.316406 28.039063 27.316406 15.320312 0 27.636719-11.996094 28.039062-27.316406l2.175781-83.328125c.214844-8.21875-2.824218-15.992187-8.5625-21.882813-11.878906-12.191406-31.425781-12.191406-43.304687 0-5.738281 5.890626-8.78125 13.660157-8.566406 21.882813zm35.363282-91.253906c1.941406 1.992187 2.972656 4.621094 2.898437 7.402344l-2.179687 83.328124c-.113282 4.398438-3.648438 7.839844-8.042969 7.839844-4.398438 0-7.933594-3.441406-8.046875-7.839844l-2.179688-83.328124c-.242187-9.347657 11.128906-13.996094 17.550782-7.402344zm0 0"/><path d="m256.421875 422.289062c-17.402344 0-31.5625 14.160157-31.5625 31.566407 0 17.402343 14.160156 31.5625 31.5625 31.5625 17.40625 0 31.566406-14.160157 31.566406-31.5625 0-17.40625-14.160156-31.566407-31.566406-31.566407zm0 43.132813c-6.375 0-11.5625-5.191406-11.5625-11.566406s5.1875-11.5625 11.5625-11.5625c6.378906 0 11.566406 5.1875 11.566406 11.5625s-5.1875 11.566406-11.566406 11.566406zm0 0"/><path d="m143.21875 194.652344h-.027344c-5.519531 0-9.984375 4.480468-9.984375 10 0 5.523437 4.488281 10 10.011719 10s10-4.476563 10-10c0-5.519532-4.480469-10-10-10zm0 0"/><path d="m78.605469 146.9375h164.363281c5.523438 0 10-4.476562 10-10s-4.476562-10-10-10h-164.363281c-5.519531 0-10 4.476562-10 10s4.476562 10 10 10zm0 0"/><path d="m242.96875 194.652344h-59.777344c-5.519531 0-10 4.480468-10 10 0 5.523437 4.480469 10 10 10h59.777344c5.523438 0 10-4.476563 10-10 0-5.519532-4.476562-10-10-10zm0 0"/><path d="m78.605469 214.652344h24.585937c5.523438 0 10-4.476563 10-10 0-5.519532-4.476562-10-10-10h-24.585937c-5.519531 0-10 4.480468-10 10 0 5.523437 4.476562 10 10 10zm0 0"/></svg>