<svg id="Capa_1" enable-background="new 0 0 512 512" height="512" viewBox="0 0 512 512" width="512" xmlns="http://www.w3.org/2000/svg"><g><path d="m502 222.6h-307.989c-10.514-14.166-27.518-23.395-46.681-23.395s-36.166 9.229-46.681 23.395h-90.649c-5.523 0-10 4.478-10 10v46.8c0 5.523 4.477 10 10 10h90.649c10.515 14.167 27.518 23.396 46.681 23.396s36.166-9.229 46.681-23.396h307.989c5.522 0 10-4.477 10-10v-46.8c0-5.523-4.478-10-10-10zm-482 46.8v-26.8h71.202c-1.062 4.3-1.639 8.784-1.639 13.4s.577 9.101 1.639 13.4zm127.33 23.396c-20.824 0-37.767-16.507-37.767-36.796s16.942-36.796 37.767-36.796 37.767 16.507 37.767 36.796-16.943 36.796-37.767 36.796zm344.67-23.396h-288.542c1.062-4.3 1.639-8.784 1.639-13.4s-.577-9.101-1.639-13.4h288.542z"/><circle cx="166.65" cy="92.21" r="10"/><path d="m502 82.21h-90.65c-10.515-14.166-27.518-23.395-46.68-23.395s-36.165 9.229-46.68 23.395h-106.34c-5.523 0-10 4.478-10 10s4.477 10 10 10h96.892c-1.062 4.3-1.639 8.785-1.639 13.401s.577 9.099 1.638 13.398h-288.541v-26.8h101.65c5.522 0 10-4.478 10-10s-4.478-10-10-10h-111.65c-5.523 0-10 4.478-10 10v46.8c0 5.522 4.477 10 10 10h307.987c10.514 14.168 27.519 23.398 46.683 23.398s36.168-9.23 46.683-23.398h90.647c5.522 0 10-4.478 10-10v-46.8c0-5.521-4.478-9.999-10-9.999zm-137.33 70.198c-20.824 0-37.767-16.507-37.767-36.797 0-20.289 16.942-36.796 37.767-36.796 20.824 0 37.767 16.507 37.767 36.796-.001 20.29-16.943 36.797-37.767 36.797zm127.33-23.398h-71.202c1.062-4.299 1.638-8.783 1.638-13.398 0-4.617-.577-9.101-1.639-13.401h71.203z"/><path d="m502 362.99h-90.647c-10.514-14.168-27.519-23.398-46.683-23.398s-36.168 9.23-46.683 23.398h-307.987c-5.523 0-10 4.478-10 10v46.8c0 5.522 4.477 10 10 10h307.99c10.515 14.166 27.518 23.395 46.68 23.395s36.165-9.229 46.68-23.395h90.65c5.522 0 10-4.478 10-10v-46.8c0-5.522-4.478-10-10-10zm-482 46.8v-26.8h288.542c-1.062 4.299-1.638 8.783-1.638 13.398 0 4.617.577 9.102 1.639 13.401h-288.543zm344.67 23.395c-20.824 0-37.767-16.507-37.767-36.796 0-20.29 16.942-36.797 37.767-36.797 20.824 0 37.767 16.507 37.767 36.797-.001 20.289-16.943 36.796-37.767 36.796zm127.33-23.395h-71.203c1.062-4.3 1.639-8.785 1.639-13.401s-.577-9.1-1.638-13.398h71.202z"/></g></svg>